<svg width="107" height="115" viewBox="0 0 107 115" fill="none" xmlns="http://www.w3.org/2000/svg">
<path d="M81.5 47.4998H53.5001H46.5001H25.5002C25.5002 47.4998 25.4999 65.258 25.5 79.1998C25.5002 99.4998 45.1001 113.5 53.5001 113.5C61.9 113.5 81.5 99.4998 81.5 79.1998V47.4998Z" fill="#FBF3EA"/>
<path fill-rule="evenodd" clip-rule="evenodd" d="M24.0001 47.4997C24.0002 46.6713 24.6717 45.9998 25.5001 45.9998H81.5C82.3284 45.9998 83 46.6713 83 47.4998V79.1998C83 89.8496 77.8605 98.7826 71.7184 105.015C68.643 108.136 65.2866 110.612 62.1313 112.315C59.0108 114 55.9546 115 53.5001 115C51.0456 115 47.9893 114 44.8688 112.315C41.7135 110.612 38.3571 108.136 35.2817 105.015C29.1396 98.7826 24.0001 89.8496 24 79.1998L24.0001 47.4997C24.0001 47.4996 24.0001 47.4997 25.5001 47.4998L24.0001 47.4997ZM27.0001 48.9998L27 79.1997C27.0001 88.8499 31.6607 97.0669 37.4185 102.909C40.2931 105.826 43.4117 108.119 46.2939 109.675C49.2109 111.25 51.7546 112 53.5001 112C55.2455 112 57.7892 111.25 60.7062 109.675C63.5884 108.119 66.707 105.826 69.5816 102.909C75.3394 97.0669 80 88.8499 80 79.1998V48.9998H48.0001V98.1047C55.0797 98.4817 59.2037 96.506 61.7111 93.794C64.4475 90.8341 65.5227 86.7242 66.0115 82.8137C66.1143 81.9917 66.864 81.4086 67.686 81.5113C68.508 81.6141 69.0911 82.3638 68.9884 83.1858C68.4772 87.2753 67.3024 92.1654 63.9139 95.8305C60.4532 99.5738 54.9428 101.773 46.3642 100.994C45.5916 100.923 45.0001 100.276 45.0001 99.4998V48.9998H27.0001Z" fill="#0D1F26"/>
<circle cx="36.5" cy="63.4999" r="5.5" fill="#0D1F26"/>
<path d="M69 66C69 66.5 68.6964 64 63.5 64C58.3036 64 58 66.5 58 66C58 62.9624 60.6929 61 63.5 61C66.3071 61 69 62.9624 69 66Z" fill="#0D1F26"/>
<path d="M12.4247 27.4818C22.3172 20.6102 23.8011 47.1804 23.8011 47.1804H51.5C51.5 47.1804 44.8385 0.947131 22.3172 9.15746C9.35599 13.8826 5.50001 37.5601 5.50001 37.5601C5.50001 37.5601 8.05397 30.5178 12.4247 27.4818Z" fill="#EF9C42"/>
<path d="M9.49999 41.5601C9.49999 43.7693 7.70913 45.5601 5.49999 45.5601C3.29086 45.5601 1.5 43.7693 1.5 41.5601C1.5 39.351 3.29088 37.5601 5.50001 37.5601C7.70915 37.5601 9.49999 39.351 9.49999 41.5601Z" fill="#FBF3EA"/>
<path fill-rule="evenodd" clip-rule="evenodd" d="M35.4143 12.7841C31.9832 9.90661 27.899 8.71915 22.831 10.5667C19.9496 11.6171 17.494 13.752 15.4173 16.4943C13.3426 19.2341 11.7049 22.5036 10.4423 25.6841C10.1398 26.4464 9.85978 27.2008 9.60135 27.9384C10.2072 27.3153 10.8635 26.7399 11.569 26.2498C12.9931 25.2606 14.432 24.7594 15.8582 24.8589C17.295 24.9592 18.4855 25.6526 19.4344 26.5981C21.2601 28.4171 22.4547 31.4271 23.2678 34.3525C24.0996 37.3453 24.6053 40.5335 24.9034 42.9527C25.0369 44.0361 25.1297 44.9733 25.1916 45.6804H49.7304C49.7186 45.6144 49.7064 45.5467 49.6938 45.4773C49.4713 44.2491 49.128 42.4995 48.6461 40.4239C47.6806 36.2646 46.1675 30.8337 43.9738 25.6772C41.7674 20.4908 38.937 15.7384 35.4143 12.7841ZM51.5 47.1804C52.9847 46.9665 52.9846 46.9659 52.9845 46.9652L52.983 46.9551L52.9789 46.9271L52.9631 46.8221C52.9492 46.7307 52.9284 46.5971 52.9006 46.4244C52.8449 46.0789 52.7607 45.5767 52.6458 44.9424C52.416 43.6743 52.063 41.8761 51.5684 39.7455C50.5812 35.4927 49.0213 29.8784 46.7344 24.5028C44.4603 19.1573 41.4026 13.8908 37.3421 10.4855C33.1901 7.0034 27.9962 5.49057 21.8035 7.74817C18.2042 9.0603 15.3174 11.657 13.0257 14.6832C10.7321 17.7119 8.97562 21.2478 7.65399 24.5773C6.32971 27.9134 5.42355 31.0897 4.84843 33.4285C4.565 34.5811 4.36097 35.5343 4.22633 36.2084C1.8029 36.783 0 38.961 0 41.5601C0 44.5977 2.46243 47.0601 5.5 47.0601C8.53757 47.0601 11 44.5977 11 41.5601C11 39.2605 9.58862 37.2904 7.58481 36.469C7.85804 35.8729 8.21012 35.1546 8.63564 34.386C9.78749 32.3055 11.3828 30.0319 13.2805 28.7137C14.3296 27.985 15.101 27.8134 15.6494 27.8516C16.1872 27.8892 16.7357 28.1441 17.317 28.7233C18.5517 29.9536 19.583 32.2977 20.3774 35.1559C21.1531 37.9468 21.6366 40.9716 21.9259 43.3196C22.07 44.4889 22.1647 45.4804 22.2233 46.1777C22.2525 46.5262 22.2727 46.8007 22.2856 46.9867C22.292 47.0797 22.2965 47.1505 22.2994 47.1974L22.3026 47.2494L22.3033 47.2615L22.3034 47.264C22.3034 47.2639 22.3034 47.264 22.3034 47.264C22.3479 48.0585 23.0052 48.6804 23.8011 48.6804H51.5C51.9352 48.6804 52.3489 48.4914 52.6338 48.1625C52.9187 47.8336 53.0467 47.3972 52.9847 46.9665L51.5 47.1804ZM5.50002 39.0601C4.1193 39.0601 3 40.1794 3 41.5601C3 42.9408 4.11929 44.0601 5.5 44.0601C6.88071 44.0601 8 42.9408 8 41.5601C8 40.1794 6.88072 39.0601 5.50002 39.0601Z" fill="#0D1F26"/>
<path d="M96.2552 33.2982C84.7167 30.2704 82.6722 47.2208 82.6722 47.2208H54.5C54.5 47.2208 62.5564 15.8842 86.1937 14.8165C116.881 13.4304 101.787 51.7545 101.787 51.7545C101.787 51.7545 103.298 35.1463 96.2552 33.2982Z" fill="#4EB1CF"/>
<path d="M104.505 55.5447C104.505 57.7539 102.714 59.5447 100.505 59.5447C98.2961 59.5447 96.5052 57.7539 96.5052 55.5447C96.5052 53.3356 98.2961 51.5447 100.505 51.5447C102.714 51.5447 104.505 53.3356 104.505 55.5447Z" fill="#FBF3EA"/>
<path fill-rule="evenodd" clip-rule="evenodd" d="M103.013 41.9782C102.727 40.0365 102.249 38.0378 101.45 36.3268C100.503 34.3004 98.9995 32.4675 96.6359 31.8473C93.363 30.9884 90.6376 31.5343 88.4554 32.9335C86.3298 34.2964 84.8395 36.39 83.7985 38.4466C82.7512 40.5155 82.1016 42.6604 81.7138 44.2678C81.5811 44.8175 81.4779 45.3096 81.3993 45.7208H56.514C56.7638 44.9494 57.1002 43.9706 57.53 42.8414C58.6312 39.9486 60.3368 36.0915 62.7557 32.2127C67.6209 24.4111 75.1732 16.8158 86.2614 16.315C93.6169 15.9827 97.9191 18.0289 100.436 20.9771C103.006 23.9887 103.968 28.2319 103.998 32.7757C104.019 35.9363 103.588 39.1386 103.013 41.9782ZM54.5 47.2208C53.0473 46.8473 53.0474 46.8466 53.0476 46.8459L53.0498 46.8376L53.0553 46.8165L53.0754 46.741C53.0928 46.6761 53.1185 46.5823 53.1525 46.4616C53.2206 46.22 53.3224 45.8704 53.4597 45.4277C53.7342 44.5428 54.1514 43.2844 54.7263 41.7741C55.8744 38.7579 57.6602 34.7141 60.2101 30.6253C65.2824 22.4917 73.5769 13.8848 86.126 13.318C94.1144 12.9572 99.4332 15.1818 102.717 19.0295C105.948 22.8138 106.966 27.8918 106.998 32.7558C107.031 37.6438 106.069 42.5331 105.117 46.1682C104.639 47.993 104.159 49.5182 103.797 50.5902C103.744 50.7464 103.694 50.893 103.647 51.0296C105.072 52.0234 106.005 53.6751 106.005 55.5447C106.005 58.5823 103.543 61.0447 100.505 61.0447C97.4677 61.0447 95.0052 58.5823 95.0052 55.5447C95.0052 52.5472 97.4032 50.1097 100.386 50.046C100.397 49.7613 100.407 49.4444 100.413 49.1007C100.444 47.5555 100.413 45.4933 100.172 43.3903C99.9289 41.2693 99.4821 39.2026 98.7319 37.5965C97.9809 35.989 97.0325 35.0529 95.8745 34.749C93.3782 34.094 91.5211 34.5315 90.0747 35.4589C88.5718 36.4226 87.3875 37.999 86.4751 39.8015C85.5689 41.5917 84.9862 43.4952 84.6301 44.9714C84.4532 45.7048 84.3347 46.3218 84.261 46.7518C84.2242 46.9665 84.1987 47.134 84.1826 47.2452C84.1789 47.2712 84.1757 47.2941 84.1729 47.3138C84.1698 47.3362 84.1674 47.3545 84.1655 47.3685L84.1619 47.3963L84.1614 47.4004C84.0702 48.1535 83.4309 48.7208 82.6722 48.7208H54.5C54.0364 48.7208 53.5988 48.5063 53.3146 48.1399C53.0305 47.7735 52.9318 47.2963 53.0473 46.8473L54.5 47.2208ZM100.505 53.0447C99.1245 53.0447 98.0052 54.164 98.0052 55.5447C98.0052 56.9254 99.1245 58.0447 100.505 58.0447C101.886 58.0447 103.005 56.9254 103.005 55.5447C103.005 54.164 101.886 53.0447 100.505 53.0447Z" fill="#0D1F26"/>
<path fill-rule="evenodd" clip-rule="evenodd" d="M77.4721 17.7002C77.5922 15.4013 77.1873 13.34 76.3681 11.5209C77.2963 13.1037 77.6003 15.2461 77.4721 17.7002ZM33.5317 18.6065C33.6349 16.4537 33.9966 14.5753 34.7157 13.1654C34.0405 14.8024 33.6271 16.6153 33.5317 18.6065Z" fill="#FFAE58"/>
<path d="M33.5317 18.6065C33.0127 29.4378 39.0397 47.2157 39.0397 47.2157H49.5C48.646 35.2665 46.6106 10.4497 39.0397 10.4497C36.9654 10.4497 35.5815 11.4679 34.7157 13.1654C34.0405 14.8024 33.6271 16.6153 33.5317 18.6065Z" fill="#6BC4CF"/>
<path d="M76.3681 11.5209C70.2511 -2.062 41.0313 -2.14634 34.7157 13.1654C35.5815 11.4679 36.9654 10.4497 39.0397 10.4497C46.6106 10.4497 48.646 35.2665 49.5 47.2157H50.3731C51.5882 35.5446 56.0512 11.4835 66.9598 9.09018C72.0374 7.97619 74.9408 9.08696 76.3681 11.5209Z" fill="#0D1F26"/>
<path d="M66.9598 47.2157C66.9598 47.2157 76.8767 29.0973 77.4721 17.7002C77.5922 15.4013 77.1873 13.34 76.3681 11.5209C74.9408 9.08696 72.0374 7.97619 66.9598 9.09018C56.0512 11.4835 51.5882 35.5446 50.3731 47.2157H66.9598Z" fill="#D17A44"/>
<path d="M53.8575 56.4998C53.8575 58.7089 52.0666 60.4998 49.8575 60.4998C47.6483 60.4998 45.8575 58.7089 45.8575 56.4998C45.8575 54.2906 47.6483 52.4998 49.8575 52.4998C52.0666 52.4998 53.8575 54.2906 53.8575 56.4998Z" fill="#FBF3EA"/>
<path fill-rule="evenodd" clip-rule="evenodd" d="M36.0786 13.7951C36.414 13.1544 36.8074 12.7129 37.2456 12.4262C37.6874 12.1372 38.2594 11.9497 39.0396 11.9497C40.0076 11.9497 41.178 12.7519 42.4088 15.19C43.5865 17.5227 44.5458 20.8419 45.3185 24.65C46.7265 31.5887 47.4469 39.7894 47.8868 45.7157H40.1274C39.9736 45.2352 39.7734 44.5981 39.5414 43.8333C38.9899 42.0152 38.26 39.4797 37.5466 36.6109C36.1081 30.8259 34.7817 23.8577 35.0299 18.6783C35.1162 16.8771 35.485 15.253 36.0786 13.7951ZM33.3515 12.5391C32.5131 14.2123 32.1398 16.3121 32.0333 18.5347C31.7625 24.1866 33.1901 31.5231 34.6353 37.3348C35.3638 40.2644 36.1082 42.8503 36.6705 44.7041C36.9519 45.6315 37.1879 46.3767 37.3542 46.8916C37.4373 47.149 37.503 47.3489 37.5481 47.4852C37.5707 47.5533 37.5882 47.6056 37.6001 47.6412L37.6138 47.682L37.6185 47.6959C37.6186 47.6962 37.619 47.6973 39.0396 47.2157L37.619 47.6973C37.8254 48.3061 38.3967 48.7157 39.0396 48.7157H48.1023C48.1778 49.7951 48.2337 50.6232 48.2738 51.2311C46.0081 51.9112 44.3573 54.0127 44.3573 56.4998C44.3573 59.5373 46.8198 61.9998 49.8573 61.9998C52.8949 61.9998 55.3573 59.5373 55.3573 56.4998C55.3573 54.026 53.7242 51.9337 51.4773 51.2422C51.5352 50.6304 51.6163 49.7988 51.7265 48.7157H66.9597C67.5078 48.7157 68.0123 48.4167 68.2755 47.9359L66.9597 47.2157C68.2755 47.9359 68.2753 47.9362 68.2755 47.9359L68.2763 47.9345L68.278 47.9314L68.2841 47.9202L68.3067 47.8785C68.3264 47.8422 68.3553 47.7888 68.3926 47.7193C68.4674 47.5802 68.5762 47.3762 68.7145 47.1133C68.991 46.5876 69.3854 45.8262 69.86 44.8778C70.8085 42.9821 72.0799 40.3338 73.3711 37.3231C75.9284 31.3604 78.6571 23.7667 78.9699 17.7785C78.97 17.776 78.9702 17.7735 78.9703 17.771C79.1025 15.2248 78.8111 12.77 77.7033 10.8336C74.2493 3.27546 64.6551 -0.191684 55.5833 0.00802717C46.4661 0.208736 36.8556 4.12671 33.3515 12.5391ZM70.8226 7.15936C66.9995 4.3555 61.4549 2.87949 55.6493 3.0073C49.3407 3.14618 43.2731 5.17145 39.3771 8.96082C42.0116 9.13619 43.833 11.3542 45.0869 13.838C46.4469 16.5319 47.4693 20.1637 48.2586 24.0535C49.148 28.4368 49.7673 33.2859 50.2149 37.7522C51.0085 33.3761 52.1159 28.6082 53.6104 24.1929C54.9499 20.2358 56.6247 16.4875 58.714 13.5469C60.7962 10.6164 63.4019 8.33508 66.6383 7.62503C68.167 7.28964 69.5612 7.13282 70.8226 7.15936ZM52.05 45.7157H66.0599C66.328 45.2061 66.7129 44.4632 67.1771 43.5354C68.1065 41.6778 69.3516 39.0842 70.614 36.1407C73.164 30.1949 75.6915 23.0308 75.974 17.622C76.0804 15.5855 75.7293 13.7883 75.0343 12.2132C74.5158 11.3621 73.7573 10.7443 72.618 10.4166C71.4023 10.0669 69.6785 10.0294 67.2812 10.5553C65.0632 11.0419 63.0203 12.6658 61.1596 15.2845C59.3061 17.8933 57.7439 21.3384 56.4521 25.1547C54.1062 32.0849 52.7327 39.9934 52.05 45.7157ZM49.8573 53.9998C48.4766 53.9998 47.3573 55.119 47.3573 56.4998C47.3573 57.8805 48.4766 58.9998 49.8573 58.9998C51.2381 58.9998 52.3573 57.8805 52.3573 56.4998C52.3573 55.119 51.2381 53.9998 49.8573 53.9998Z" fill="#0D1F26"/>
</svg>
