<svg width="107" height="115" viewBox="0 0 107 115" fill="none" xmlns="http://www.w3.org/2000/svg">
<path d="M81.499 47.4998H53.4991H46.4991H25.4992C25.4992 47.4998 25.4989 65.258 25.4991 79.1998C25.4992 99.4998 45.0992 113.5 53.4991 113.5C61.8991 113.5 81.499 99.4998 81.499 79.1998V47.4998Z" fill="#FBF3EA"/>
<path fill-rule="evenodd" clip-rule="evenodd" d="M23.9992 47.4997C23.9992 46.6713 24.6707 45.9998 25.4992 45.9998H81.499C82.3274 45.9998 82.999 46.6713 82.999 47.4998V79.1998C82.999 89.8496 77.8596 98.7826 71.7174 105.015C68.642 108.136 65.2856 110.612 62.1304 112.315C59.0099 114 55.9536 115 53.4991 115C51.0446 115 47.9883 114 44.8678 112.315C41.7126 110.612 38.3561 108.136 35.2808 105.015C29.1386 98.7826 23.9991 89.8496 23.999 79.1998L23.9992 47.4997C23.9992 47.4996 23.9992 47.4997 25.4992 47.4998L23.9992 47.4997ZM26.9991 48.9998L26.999 79.1997C26.9991 88.8499 31.6597 97.0669 37.4175 102.909C40.2922 105.826 43.4107 108.119 46.2929 109.675C49.2099 111.25 51.7536 112 53.4991 112C55.2445 112 57.7882 111.25 60.7052 109.675C63.5875 108.119 66.706 105.826 69.5806 102.909C75.3384 97.0669 79.999 88.8499 79.999 79.1998V48.9998H47.9991V98.1047C55.0787 98.4817 59.2027 96.506 61.7101 93.794C64.4466 90.8341 65.5218 86.7242 66.0106 82.8137C66.1133 81.9917 66.863 81.4086 67.685 81.5113C68.5071 81.6141 69.0902 82.3638 68.9874 83.1858C68.4762 87.2753 67.3014 92.1654 63.9129 95.8305C60.4522 99.5738 54.9419 101.773 46.3633 100.994C45.5907 100.923 44.9991 100.276 44.9991 99.4998V48.9998H26.9991Z" fill="#0D1F26"/>
<circle cx="36.499" cy="63.4999" r="5.5" fill="#0D1F26"/>
<circle cx="63.499" cy="63.4999" r="5.5" fill="#0D1F26"/>
<path d="M12.4238 27.4818C22.3162 20.6102 23.8001 47.1804 23.8001 47.1804H51.499C51.499 47.1804 44.8375 0.947131 22.3162 9.15746C9.35501 13.8826 5.49904 37.5601 5.49904 37.5601C5.49904 37.5601 8.05299 30.5178 12.4238 27.4818Z" fill="#EF9C42"/>
<path d="M9.49901 41.5601C9.49901 43.7693 7.70815 45.5601 5.49902 45.5601C3.28988 45.5601 1.49902 43.7693 1.49902 41.5601C1.49902 39.351 3.2899 37.5601 5.49904 37.5601C7.70817 37.5601 9.49901 39.351 9.49901 41.5601Z" fill="#FBF3EA"/>
<path fill-rule="evenodd" clip-rule="evenodd" d="M35.4134 12.7841C31.9822 9.90661 27.898 8.71915 22.83 10.5667C19.9486 11.6171 17.493 13.752 15.4164 16.4943C13.3416 19.2341 11.7039 22.5036 10.4414 25.6841C10.1388 26.4464 9.85881 27.2008 9.60038 27.9384C10.2063 27.3153 10.8625 26.7399 11.568 26.2498C12.9921 25.2606 14.431 24.7594 15.8572 24.8589C17.2941 24.9592 18.4845 25.6526 19.4334 26.5981C21.2591 28.4171 22.4537 31.4271 23.2668 34.3525C24.0987 37.3453 24.6044 40.5335 24.9024 42.9527C25.0359 44.0361 25.1287 44.9733 25.1907 45.6804H49.7294C49.7176 45.6144 49.7054 45.5467 49.6929 45.4773C49.4703 44.2491 49.127 42.4995 48.6451 40.4239C47.6796 36.2646 46.1665 30.8337 43.9729 25.6772C41.7664 20.4908 38.9361 15.7384 35.4134 12.7841ZM51.499 47.1804C52.9837 46.9665 52.9836 46.9659 52.9835 46.9652L52.9821 46.9551L52.9779 46.9271L52.9621 46.8221C52.9482 46.7307 52.9275 46.5971 52.8996 46.4244C52.8439 46.0789 52.7597 45.5767 52.6448 44.9424C52.415 43.6743 52.062 41.8761 51.5674 39.7455C50.5802 35.4927 49.0203 29.8784 46.7334 24.5028C44.4593 19.1573 41.4016 13.8908 37.3411 10.4855C33.1891 7.0034 27.9952 5.49057 21.8025 7.74817C18.2033 9.0603 15.3164 11.657 13.0247 14.6832C10.7311 17.7119 8.97464 21.2478 7.65301 24.5773C6.32873 27.9134 5.42257 31.0897 4.84745 33.4285C4.56402 34.5811 4.35999 35.5343 4.22535 36.2084C1.80193 36.783 -0.000976562 38.961 -0.000976562 41.5601C-0.000976562 44.5977 2.46146 47.0601 5.49902 47.0601C8.53659 47.0601 10.999 44.5977 10.999 41.5601C10.999 39.2605 9.58765 37.2904 7.58384 36.469C7.85706 35.8729 8.20914 35.1546 8.63467 34.386C9.78651 32.3055 11.3818 30.0319 13.2795 28.7137C14.3286 27.985 15.1 27.8134 15.6484 27.8516C16.1862 27.8892 16.7347 28.1441 17.316 28.7233C18.5508 29.9536 19.582 32.2977 20.3764 35.1559C21.1521 37.9468 21.6357 40.9716 21.9249 43.3196C22.069 44.4889 22.1637 45.4804 22.2223 46.1777C22.2516 46.5262 22.2718 46.8007 22.2846 46.9867C22.291 47.0797 22.2955 47.1505 22.2984 47.1974L22.3016 47.2494L22.3023 47.2615L22.3024 47.264C22.3024 47.2639 22.3025 47.264 22.3024 47.264C22.347 48.0585 23.0043 48.6804 23.8001 48.6804H51.499C51.9342 48.6804 52.3479 48.4914 52.6328 48.1625C52.9177 47.8336 53.0458 47.3972 52.9837 46.9665L51.499 47.1804ZM5.49904 39.0601C4.11832 39.0601 2.99902 40.1794 2.99902 41.5601C2.99902 42.9408 4.11831 44.0601 5.49902 44.0601C6.87974 44.0601 7.99902 42.9408 7.99902 41.5601C7.99902 40.1794 6.87974 39.0601 5.49904 39.0601Z" fill="#0D1F26"/>
<path d="M96.2542 33.2982C84.7157 30.2704 82.6712 47.2208 82.6712 47.2208H54.499C54.499 47.2208 62.5554 15.8842 86.1927 14.8165C116.88 13.4304 101.786 51.7545 101.786 51.7545C101.786 51.7545 103.297 35.1463 96.2542 33.2982Z" fill="#4EB1CF"/>
<path d="M104.504 55.5447C104.504 57.7539 102.713 59.5447 100.504 59.5447C98.2951 59.5447 96.5042 57.7539 96.5042 55.5447C96.5042 53.3356 98.2951 51.5447 100.504 51.5447C102.713 51.5447 104.504 53.3356 104.504 55.5447Z" fill="#FBF3EA"/>
<path fill-rule="evenodd" clip-rule="evenodd" d="M103.012 41.9782C102.726 40.0365 102.248 38.0378 101.449 36.3268C100.502 34.3004 98.9985 32.4675 96.635 31.8473C93.362 30.9884 90.6366 31.5343 88.4544 32.9335C86.3288 34.2964 84.8385 36.39 83.7975 38.4466C82.7502 40.5155 82.1006 42.6604 81.7128 44.2678C81.5802 44.8175 81.4769 45.3096 81.3983 45.7208H56.513C56.7628 44.9494 57.0992 43.9706 57.5291 42.8414C58.6302 39.9486 60.3358 36.0915 62.7547 32.2127C67.6199 24.4111 75.1722 16.8158 86.2604 16.315C93.6159 15.9827 97.9182 18.0289 100.435 20.9771C103.005 23.9887 103.967 28.2319 103.997 32.7757C104.018 35.9363 103.587 39.1386 103.012 41.9782ZM54.499 47.2208C53.0463 46.8473 53.0464 46.8466 53.0466 46.8459L53.0488 46.8376L53.0543 46.8165L53.0744 46.741C53.0919 46.6761 53.1175 46.5823 53.1516 46.4616C53.2197 46.22 53.3214 45.8704 53.4587 45.4277C53.7333 44.5428 54.1504 43.2844 54.7253 41.7741C55.8734 38.7579 57.6592 34.7141 60.2091 30.6253C65.2814 22.4917 73.5759 13.8848 86.1251 13.318C94.1134 12.9572 99.4322 15.1818 102.716 19.0295C105.947 22.8138 106.965 27.8918 106.997 32.7558C107.03 37.6438 106.068 42.5331 105.116 46.1682C104.638 47.993 104.158 49.5182 103.796 50.5902C103.743 50.7464 103.693 50.893 103.646 51.0296C105.071 52.0234 106.004 53.6751 106.004 55.5447C106.004 58.5823 103.542 61.0447 100.504 61.0447C97.4667 61.0447 95.0042 58.5823 95.0042 55.5447C95.0042 52.5472 97.4023 50.1097 100.385 50.046C100.396 49.7613 100.406 49.4444 100.413 49.1007C100.443 47.5555 100.412 45.4933 100.171 43.3903C99.9279 41.2693 99.4811 39.2026 98.7309 37.5965C97.98 35.989 97.0315 35.0529 95.8735 34.749C93.3772 34.094 91.5202 34.5315 90.0737 35.4589C88.5708 36.4226 87.3865 37.999 86.4741 39.8015C85.5679 41.5917 84.9853 43.4952 84.6291 44.9714C84.4522 45.7048 84.3338 46.3218 84.26 46.7518C84.2232 46.9665 84.1977 47.134 84.1817 47.2452C84.1779 47.2712 84.1747 47.2941 84.172 47.3138C84.1688 47.3362 84.1664 47.3545 84.1645 47.3685L84.1609 47.3963L84.1604 47.4004C84.0692 48.1535 83.4299 48.7208 82.6712 48.7208H54.499C54.0354 48.7208 53.5978 48.5063 53.3137 48.1399C53.0295 47.7735 52.9308 47.2963 53.0463 46.8473L54.499 47.2208ZM100.504 53.0447C99.1235 53.0447 98.0042 54.164 98.0042 55.5447C98.0042 56.9254 99.1235 58.0447 100.504 58.0447C101.885 58.0447 103.004 56.9254 103.004 55.5447C103.004 54.164 101.885 53.0447 100.504 53.0447Z" fill="#0D1F26"/>
<path fill-rule="evenodd" clip-rule="evenodd" d="M77.4711 17.7002C77.5912 15.4013 77.1863 13.34 76.3671 11.5209C77.2953 13.1037 77.5993 15.2461 77.4711 17.7002ZM33.5307 18.6065C33.6339 16.4537 33.9956 14.5753 34.7147 13.1654C34.0395 14.8024 33.6261 16.6153 33.5307 18.6065Z" fill="#FFAE58"/>
<path d="M33.5307 18.6065C33.0117 29.4378 39.0387 47.2157 39.0387 47.2157H49.499C48.6451 35.2665 46.6096 10.4497 39.0387 10.4497C36.9645 10.4497 35.5806 11.4679 34.7147 13.1654C34.0395 14.8024 33.6261 16.6153 33.5307 18.6065Z" fill="#6BC4CF"/>
<path d="M76.3671 11.5209C70.2501 -2.062 41.0303 -2.14634 34.7147 13.1654C35.5806 11.4679 36.9645 10.4497 39.0387 10.4497C46.6096 10.4497 48.6451 35.2665 49.499 47.2157H50.3721C51.5872 35.5446 56.0502 11.4835 66.9588 9.09018C72.0365 7.97619 74.9398 9.08696 76.3671 11.5209Z" fill="#FBF3EA"/>
<path d="M66.9588 47.2157C66.9588 47.2157 76.8757 29.0973 77.4711 17.7002C77.5912 15.4013 77.1863 13.34 76.3671 11.5209C74.9398 9.08696 72.0365 7.97619 66.9588 9.09018C56.0502 11.4835 51.5872 35.5446 50.3721 47.2157H66.9588Z" fill="#D17A44"/>
<path d="M53.8565 56.4998C53.8565 58.7089 52.0656 60.4998 49.8565 60.4998C47.6474 60.4998 45.8565 58.7089 45.8565 56.4998C45.8565 54.2906 47.6474 52.4998 49.8565 52.4998C52.0656 52.4998 53.8565 54.2906 53.8565 56.4998Z" fill="#FBF3EA"/>
<path fill-rule="evenodd" clip-rule="evenodd" d="M36.0776 13.7951C36.413 13.1544 36.8065 12.7129 37.2446 12.4262C37.6864 12.1372 38.2584 11.9497 39.0386 11.9497C40.0066 11.9497 41.177 12.7519 42.4079 15.19C43.5855 17.5227 44.5449 20.8419 45.3176 24.65C46.7255 31.5887 47.446 39.7894 47.8858 45.7157H40.1264C39.9726 45.2352 39.7724 44.5981 39.5404 43.8333C38.9889 42.0152 38.259 39.4797 37.5456 36.6109C36.1071 30.8259 34.7807 23.8577 35.0289 18.6783C35.1152 16.8771 35.484 15.253 36.0776 13.7951ZM33.3505 12.5391C32.5122 14.2123 32.1388 16.3121 32.0323 18.5347C31.7615 24.1866 33.1891 31.5231 34.6343 37.3348C35.3628 40.2644 36.1072 42.8503 36.6696 44.7041C36.9509 45.6315 37.187 46.3767 37.3532 46.8916C37.4363 47.149 37.502 47.3489 37.5471 47.4852C37.5697 47.5533 37.5872 47.6056 37.5991 47.6412L37.6128 47.682L37.6175 47.6959C37.6176 47.6962 37.618 47.6973 39.0386 47.2157L37.618 47.6973C37.8244 48.3061 38.3958 48.7157 39.0386 48.7157H48.1013C48.1769 49.7951 48.2328 50.6232 48.2728 51.2311C46.0072 51.9112 44.3564 54.0127 44.3564 56.4998C44.3564 59.5373 46.8188 61.9998 49.8564 61.9998C52.8939 61.9998 55.3564 59.5373 55.3564 56.4998C55.3564 54.026 53.7232 51.9337 51.4763 51.2422C51.5343 50.6304 51.6153 49.7988 51.7255 48.7157H66.9587C67.5069 48.7157 68.0114 48.4167 68.2745 47.9359L66.9587 47.2157C68.2745 47.9359 68.2744 47.9362 68.2745 47.9359L68.2753 47.9345L68.277 47.9314L68.2831 47.9202L68.3057 47.8785C68.3255 47.8422 68.3543 47.7888 68.3917 47.7193C68.4664 47.5802 68.5752 47.3762 68.7135 47.1133C68.9901 46.5876 69.3845 45.8262 69.859 44.8778C70.8075 42.9821 72.079 40.3338 73.3702 37.3231C75.9275 31.3604 78.6561 23.7667 78.9689 17.7785C78.9691 17.776 78.9692 17.7735 78.9693 17.771C79.1015 15.2248 78.8101 12.77 77.7023 10.8336C74.2483 3.27546 64.6542 -0.191684 55.5823 0.00802717C46.4651 0.208736 36.8546 4.12671 33.3505 12.5391ZM70.8216 7.15936C66.9985 4.3555 61.4539 2.87949 55.6483 3.0073C49.3398 3.14618 43.2721 5.17145 39.3761 8.96082C42.0106 9.13619 43.832 11.3542 45.0859 13.838C46.4459 16.5319 47.4684 20.1637 48.2576 24.0535C49.1471 28.4368 49.7663 33.2859 50.2139 37.7522C51.0076 33.3761 52.1149 28.6082 53.6095 24.1929C54.9489 20.2358 56.6238 16.4875 58.7131 13.5469C60.7952 10.6164 63.4009 8.33508 66.6373 7.62503C68.166 7.28964 69.5602 7.13282 70.8216 7.15936ZM52.0491 45.7157H66.0589C66.327 45.2061 66.7119 44.4632 67.1761 43.5354C68.1056 41.6778 69.3506 39.0842 70.613 36.1407C73.163 30.1949 75.6905 23.0308 75.973 17.622C76.0794 15.5855 75.7283 13.7883 75.0333 12.2132C74.5149 11.3621 73.7563 10.7443 72.6171 10.4166C71.4013 10.0669 69.6776 10.0294 67.2802 10.5553C65.0623 11.0419 63.0193 12.6658 61.1586 15.2845C59.3051 17.8933 57.7429 21.3384 56.4511 25.1547C54.1053 32.0849 52.7317 39.9934 52.0491 45.7157ZM49.8564 53.9998C48.4757 53.9998 47.3564 55.119 47.3564 56.4998C47.3564 57.8805 48.4757 58.9998 49.8564 58.9998C51.2371 58.9998 52.3564 57.8805 52.3564 56.4998C52.3564 55.119 51.2371 53.9998 49.8564 53.9998Z" fill="#0D1F26"/>
</svg>
